# Blender 4.0.1
# www.blender.org
mtllib untitled.mtl
o Cube.001
v 1.000000 -0.299505 1.000000
v 1.000000 0.299505 1.000000
v 1.000000 -0.299505 -1.000000
v 1.000000 0.299505 -1.000000
v 3.000000 -0.299505 1.000000
v 3.000000 0.299505 1.000000
v 3.000000 -0.299505 -1.000000
v 3.000000 0.299505 -1.000000
v 6.567773 0.096386 -0.321819
v 6.567773 -0.096386 -0.321819
v 6.567773 -0.096386 0.321819
v 6.567773 0.096386 0.321819
v -1.000000 -0.299505 1.000000
v -1.000000 0.299505 1.000000
v -1.000000 -0.299505 -1.000000
v -1.000000 0.299505 -1.000000
v -3.000000 -0.299505 1.000000
v -3.000000 0.299505 1.000000
v -3.000000 -0.299505 -1.000000
v -3.000000 0.299505 -1.000000
v -6.567773 0.096386 -0.321819
v -6.567773 -0.096386 -0.321819
v -6.567773 -0.096386 0.321819
v -6.567773 0.096386 0.321819
v -1.000000 -1.000000 3.981817
v -1.000000 1.000000 3.981817
v -0.261158 -0.645088 -3.981817
v -0.261158 -0.122772 -3.981817
v 1.000000 -1.000000 3.981817
v 1.000000 1.000000 3.981817
v 0.261158 -0.645088 -3.981817
v 0.261158 -0.122772 -3.981817
v -1.000000 -1.000000 -2.349198
v -1.000000 1.000000 -2.349198
v 1.000000 -1.000000 -2.349198
v 1.000000 1.000000 -2.349198
v -0.203769 0.442379 5.575314
v -0.203769 1.805164 5.575314
v 0.203769 1.805164 5.575314
v 0.203769 0.442379 5.575314
vn -1.0000 -0.0000 -0.0000
vn -0.0000 -0.0000 -1.0000
vn 0.1867 -0.0000 0.9824
vn -0.0000 -0.0000 1.0000
vn -0.0000 -1.0000 -0.0000
vn -0.0000 1.0000 -0.0000
vn 1.0000 -0.0000 -0.0000
vn 0.0568 -0.9984 -0.0000
vn 0.0568 0.9984 -0.0000
vn 0.1867 -0.0000 -0.9824
vn -0.1867 -0.0000 0.9824
vn -0.0568 -0.9984 -0.0000
vn -0.0568 0.9984 -0.0000
vn -0.1867 -0.0000 -0.9824
vn -0.9111 -0.0000 -0.4123
vn 0.8945 -0.0000 0.4470
vn -0.0000 0.8240 -0.5666
vn -0.0000 -0.9772 -0.2124
vn 0.9111 -0.0000 -0.4123
vn -0.8945 -0.0000 0.4470
vn -0.0000 -0.7414 0.6711
vn -0.0000 0.8925 -0.4510
vt 0.625000 0.000000
vt 0.375000 0.250000
vt 0.375000 0.000000
vt 0.625000 0.250000
vt 0.375000 0.500000
vt 0.375000 0.750000
vt 0.625000 0.750000
vt 0.375000 1.000000
vt 0.125000 0.750000
vt 0.125000 0.500000
vt 0.875000 0.500000
vt 0.625000 0.500000
vt 0.375000 0.198748
vt 0.625000 0.551252
vt 0.375000 0.551252
vt 0.125000 0.551252
vt 0.875000 0.551252
vt 0.875000 0.750000
vt 0.625000 1.000000
vt 0.625000 0.198748
s 0
f 2/1/1 3/2/1 1/3/1
f 4/4/2 7/5/2 3/2/2
f 5/6/3 12/7/3 6/7/3
f 6/7/4 1/8/4 5/6/4
f 7/5/5 1/9/5 3/10/5
f 4/11/6 6/7/6 8/12/6
f 9/12/7 11/6/7 10/5/7
f 7/5/8 11/6/8 5/6/8
f 6/7/9 9/12/9 8/12/9
f 8/12/10 10/5/10 7/5/10
f 15/2/7 14/1/7 13/3/7
f 19/5/2 16/4/2 15/2/2
f 24/7/11 17/6/11 18/7/11
f 13/8/4 18/7/4 17/6/4
f 13/9/5 19/5/5 15/10/5
f 18/7/6 16/11/6 20/12/6
f 23/6/1 21/12/1 22/5/1
f 23/6/12 19/5/12 17/6/12
f 21/12/13 18/7/13 20/12/13
f 22/5/14 20/12/14 19/5/14
f 33/13/15 28/4/15 27/2/15
f 28/4/2 31/5/2 27/2/2
f 36/14/7 29/6/7 35/15/7
f 30/7/16 40/6/16 29/6/16
f 35/15/5 25/9/5 33/16/5
f 34/17/6 30/7/6 36/14/6
f 28/11/17 36/14/17 32/12/17
f 31/5/18 33/16/18 27/10/18
f 32/12/19 35/15/19 31/5/19
f 26/1/1 33/13/1 25/3/1
f 39/7/4 37/8/4 40/6/4
f 26/1/20 37/3/20 38/1/20
f 29/6/21 37/9/21 25/9/21
f 26/18/22 39/7/22 30/7/22
f 2/1/1 4/4/1 3/2/1
f 4/4/2 8/12/2 7/5/2
f 5/6/3 11/6/3 12/7/3
f 6/7/4 2/19/4 1/8/4
f 7/5/5 5/6/5 1/9/5
f 4/11/6 2/18/6 6/7/6
f 9/12/7 12/7/7 11/6/7
f 7/5/8 10/5/8 11/6/8
f 6/7/9 12/7/9 9/12/9
f 8/12/10 9/12/10 10/5/10
f 15/2/7 16/4/7 14/1/7
f 19/5/2 20/12/2 16/4/2
f 24/7/11 23/6/11 17/6/11
f 13/8/4 14/19/4 18/7/4
f 13/9/5 17/6/5 19/5/5
f 18/7/6 14/18/6 16/11/6
f 23/6/1 24/7/1 21/12/1
f 23/6/12 22/5/12 19/5/12
f 21/12/13 24/7/13 18/7/13
f 22/5/14 21/12/14 20/12/14
f 33/13/15 34/20/15 28/4/15
f 28/4/2 32/12/2 31/5/2
f 36/14/7 30/7/7 29/6/7
f 30/7/16 39/7/16 40/6/16
f 35/15/5 29/6/5 25/9/5
f 34/17/6 26/18/6 30/7/6
f 28/11/17 34/17/17 36/14/17
f 31/5/18 35/15/18 33/16/18
f 32/12/19 36/14/19 35/15/19
f 26/1/1 34/20/1 33/13/1
f 39/7/4 38/19/4 37/8/4
f 26/1/20 25/3/20 37/3/20
f 29/6/21 40/6/21 37/9/21
f 26/18/22 38/18/22 39/7/22
